{
	"asset":{
		"generator":"Khronos glTF Blender I/O v3.5.30",
		"version":"2.0"
	},
	"extensionsUsed":[
		"KHR_materials_emissive_strength"
	],
	"scene":0,
	"scenes":[
		{
			"name":"Scene",
			"nodes":[
				16
			]
		}
	],
	"nodes":[
		{
			"name":"Bone.008",
			"rotation":[
				2.220446049250313e-16,
				0,
				0,
				1
			],
			"translation":[
				0,
				0.10000001639127731,
				3.725290298461914e-09
			]
		},
		{
			"children":[
				0
			],
			"name":"Bone.007",
			"rotation":[
				2.220446049250313e-16,
				0,
				0,
				1
			],
			"translation":[
				0,
				0.09999999403953552,
				3.725290298461914e-09
			]
		},
		{
			"children":[
				1
			],
			"name":"Bone.006",
			"rotation":[
				2.220446049250313e-16,
				0,
				0,
				1
			],
			"translation":[
				0,
				0.10000000894069672,
				3.725290298461914e-09
			]
		},
		{
			"children":[
				2
			],
			"name":"Bone.005",
			"rotation":[
				0.04531440883874893,
				0,
				0,
				0.9989727735519409
			],
			"scale":[
				1,
				0.9999999403953552,
				0.9999999403953552
			],
			"translation":[
				0,
				0.11045361310243607,
				0
			]
		},
		{
			"children":[
				3
			],
			"name":"Bone.004",
			"rotation":[
				-0.04531440511345863,
				0,
				0,
				0.9989727735519409
			],
			"scale":[
				1,
				1.0000001192092896,
				0.9999999403953552
			],
			"translation":[
				0,
				0.14999999105930328,
				0
			]
		},
		{
			"children":[
				4
			],
			"name":"Bone.003",
			"translation":[
				0,
				0.10999998450279236,
				0
			]
		},
		{
			"children":[
				5
			],
			"name":"Bone.002",
			"scale":[
				1,
				0.9999999403953552,
				1
			],
			"translation":[
				0,
				0.09999999403953552,
				0
			]
		},
		{
			"name":"Bone.011",
			"rotation":[
				-0.005076713860034943,
				0.007517161779105663,
				0.15396645665168762,
				0.9880344271659851
			],
			"translation":[
				4.6566128730773926e-09,
				0.20420575141906738,
				5.587935447692871e-09
			]
		},
		{
			"children":[
				7
			],
			"name":"Bone.010",
			"rotation":[
				-0.03128351643681526,
				0.007153656799346209,
				0.1438262015581131,
				0.9890825152397156
			],
			"scale":[
				1,
				1,
				0.9999999403953552
			],
			"translation":[
				-3.655441105365753e-08,
				0.20123501121997833,
				-1.862645149230957e-09
			]
		},
		{
			"children":[
				8
			],
			"name":"Bone.009",
			"rotation":[
				0.04873896390199661,
				-0.02451232075691223,
				-0.7378233671188354,
				0.6727855801582336
			],
			"scale":[
				0.9999999403953552,
				0.9999998807907104,
				1
			],
			"translation":[
				0,
				0.09999999403953552,
				0
			]
		},
		{
			"name":"Bone.014",
			"rotation":[
				-0.0017130349297076464,
				-0.007697962690144777,
				-0.16278798878192902,
				0.9866295456886292
			],
			"scale":[
				1,
				0.9999999403953552,
				0.9999998807907104
			],
			"translation":[
				2.8237700178124214e-08,
				0.20420581102371216,
				-6.51925802230835e-09
			]
		},
		{
			"children":[
				10
			],
			"name":"Bone.013",
			"rotation":[
				-0.024814816191792488,
				-0.010953334160149097,
				-0.14758065342903137,
				0.9886780381202698
			],
			"scale":[
				1,
				0.9999999403953552,
				0.9999999403953552
			],
			"translation":[
				1.6633421751066635e-08,
				0.20199009776115417,
				-1.862645149230957e-09
			]
		},
		{
			"children":[
				11
			],
			"name":"Bone.012",
			"rotation":[
				0.033260591328144073,
				0.036752551794052124,
				0.7405411005020142,
				0.6701804995536804
			],
			"scale":[
				1,
				0.9999999403953552,
				1
			],
			"translation":[
				0,
				0.09999999403953552,
				0
			]
		},
		{
			"children":[
				6,
				9,
				12
			],
			"name":"Bone.001",
			"rotation":[
				-7.450579175838357e-08,
				0,
				0,
				1
			],
			"translation":[
				0,
				0.10000003129243851,
				7.45039585581253e-10
			]
		},
		{
			"children":[
				13
			],
			"name":"Bone",
			"rotation":[
				-0.7071066498756409,
				0,
				0,
				0.70710688829422
			],
			"translation":[
				0,
				0.049999989569187164,
				0.6800000071525574
			]
		},
		{
			"mesh":0,
			"name":"Cube.003",
			"skin":0
		},
		{
			"children":[
				15,
				14
			],
			"name":"Armature"
		}
	],
	"animations":[
		{
			"channels":[
				{
					"sampler":0,
					"target":{
						"node":14,
						"path":"translation"
					}
				},
				{
					"sampler":1,
					"target":{
						"node":14,
						"path":"rotation"
					}
				},
				{
					"sampler":2,
					"target":{
						"node":14,
						"path":"scale"
					}
				},
				{
					"sampler":3,
					"target":{
						"node":13,
						"path":"translation"
					}
				},
				{
					"sampler":4,
					"target":{
						"node":13,
						"path":"rotation"
					}
				},
				{
					"sampler":5,
					"target":{
						"node":13,
						"path":"scale"
					}
				},
				{
					"sampler":6,
					"target":{
						"node":6,
						"path":"translation"
					}
				},
				{
					"sampler":7,
					"target":{
						"node":6,
						"path":"rotation"
					}
				},
				{
					"sampler":8,
					"target":{
						"node":6,
						"path":"scale"
					}
				},
				{
					"sampler":9,
					"target":{
						"node":5,
						"path":"translation"
					}
				},
				{
					"sampler":10,
					"target":{
						"node":5,
						"path":"rotation"
					}
				},
				{
					"sampler":11,
					"target":{
						"node":5,
						"path":"scale"
					}
				},
				{
					"sampler":12,
					"target":{
						"node":4,
						"path":"translation"
					}
				},
				{
					"sampler":13,
					"target":{
						"node":4,
						"path":"rotation"
					}
				},
				{
					"sampler":14,
					"target":{
						"node":4,
						"path":"scale"
					}
				},
				{
					"sampler":15,
					"target":{
						"node":3,
						"path":"translation"
					}
				},
				{
					"sampler":16,
					"target":{
						"node":3,
						"path":"rotation"
					}
				},
				{
					"sampler":17,
					"target":{
						"node":3,
						"path":"scale"
					}
				},
				{
					"sampler":18,
					"target":{
						"node":2,
						"path":"translation"
					}
				},
				{
					"sampler":19,
					"target":{
						"node":2,
						"path":"rotation"
					}
				},
				{
					"sampler":20,
					"target":{
						"node":2,
						"path":"scale"
					}
				},
				{
					"sampler":21,
					"target":{
						"node":1,
						"path":"translation"
					}
				},
				{
					"sampler":22,
					"target":{
						"node":1,
						"path":"rotation"
					}
				},
				{
					"sampler":23,
					"target":{
						"node":1,
						"path":"scale"
					}
				},
				{
					"sampler":24,
					"target":{
						"node":0,
						"path":"translation"
					}
				},
				{
					"sampler":25,
					"target":{
						"node":0,
						"path":"rotation"
					}
				},
				{
					"sampler":26,
					"target":{
						"node":0,
						"path":"scale"
					}
				},
				{
					"sampler":27,
					"target":{
						"node":9,
						"path":"translation"
					}
				},
				{
					"sampler":28,
					"target":{
						"node":9,
						"path":"rotation"
					}
				},
				{
					"sampler":29,
					"target":{
						"node":9,
						"path":"scale"
					}
				},
				{
					"sampler":30,
					"target":{
						"node":8,
						"path":"translation"
					}
				},
				{
					"sampler":31,
					"target":{
						"node":8,
						"path":"rotation"
					}
				},
				{
					"sampler":32,
					"target":{
						"node":8,
						"path":"scale"
					}
				},
				{
					"sampler":33,
					"target":{
						"node":7,
						"path":"translation"
					}
				},
				{
					"sampler":34,
					"target":{
						"node":7,
						"path":"rotation"
					}
				},
				{
					"sampler":35,
					"target":{
						"node":7,
						"path":"scale"
					}
				},
				{
					"sampler":36,
					"target":{
						"node":12,
						"path":"translation"
					}
				},
				{
					"sampler":37,
					"target":{
						"node":12,
						"path":"rotation"
					}
				},
				{
					"sampler":38,
					"target":{
						"node":12,
						"path":"scale"
					}
				},
				{
					"sampler":39,
					"target":{
						"node":11,
						"path":"translation"
					}
				},
				{
					"sampler":40,
					"target":{
						"node":11,
						"path":"rotation"
					}
				},
				{
					"sampler":41,
					"target":{
						"node":11,
						"path":"scale"
					}
				},
				{
					"sampler":42,
					"target":{
						"node":10,
						"path":"translation"
					}
				},
				{
					"sampler":43,
					"target":{
						"node":10,
						"path":"rotation"
					}
				},
				{
					"sampler":44,
					"target":{
						"node":10,
						"path":"scale"
					}
				}
			],
			"name":"MantaSwim",
			"samplers":[
				{
					"input":13,
					"interpolation":"LINEAR",
					"output":14
				},
				{
					"input":13,
					"interpolation":"LINEAR",
					"output":15
				},
				{
					"input":13,
					"interpolation":"LINEAR",
					"output":16
				},
				{
					"input":13,
					"interpolation":"LINEAR",
					"output":17
				},
				{
					"input":13,
					"interpolation":"LINEAR",
					"output":18
				},
				{
					"input":13,
					"interpolation":"LINEAR",
					"output":19
				},
				{
					"input":13,
					"interpolation":"LINEAR",
					"output":20
				},
				{
					"input":13,
					"interpolation":"LINEAR",
					"output":21
				},
				{
					"input":13,
					"interpolation":"LINEAR",
					"output":22
				},
				{
					"input":13,
					"interpolation":"LINEAR",
					"output":23
				},
				{
					"input":13,
					"interpolation":"LINEAR",
					"output":24
				},
				{
					"input":13,
					"interpolation":"LINEAR",
					"output":25
				},
				{
					"input":13,
					"interpolation":"LINEAR",
					"output":26
				},
				{
					"input":13,
					"interpolation":"LINEAR",
					"output":27
				},
				{
					"input":13,
					"interpolation":"LINEAR",
					"output":28
				},
				{
					"input":13,
					"interpolation":"LINEAR",
					"output":29
				},
				{
					"input":13,
					"interpolation":"LINEAR",
					"output":30
				},
				{
					"input":13,
					"interpolation":"LINEAR",
					"output":31
				},
				{
					"input":13,
					"interpolation":"LINEAR",
					"output":32
				},
				{
					"input":13,
					"interpolation":"LINEAR",
					"output":33
				},
				{
					"input":13,
					"interpolation":"LINEAR",
					"output":34
				},
				{
					"input":13,
					"interpolation":"LINEAR",
					"output":35
				},
				{
					"input":13,
					"interpolation":"LINEAR",
					"output":36
				},
				{
					"input":13,
					"interpolation":"LINEAR",
					"output":37
				},
				{
					"input":13,
					"interpolation":"LINEAR",
					"output":38
				},
				{
					"input":13,
					"interpolation":"LINEAR",
					"output":39
				},
				{
					"input":13,
					"interpolation":"LINEAR",
					"output":40
				},
				{
					"input":13,
					"interpolation":"LINEAR",
					"output":41
				},
				{
					"input":13,
					"interpolation":"LINEAR",
					"output":42
				},
				{
					"input":13,
					"interpolation":"LINEAR",
					"output":43
				},
				{
					"input":13,
					"interpolation":"LINEAR",
					"output":44
				},
				{
					"input":13,
					"interpolation":"LINEAR",
					"output":45
				},
				{
					"input":13,
					"interpolation":"LINEAR",
					"output":46
				},
				{
					"input":13,
					"interpolation":"LINEAR",
					"output":47
				},
				{
					"input":13,
					"interpolation":"LINEAR",
					"output":48
				},
				{
					"input":13,
					"interpolation":"LINEAR",
					"output":49
				},
				{
					"input":13,
					"interpolation":"LINEAR",
					"output":50
				},
				{
					"input":13,
					"interpolation":"LINEAR",
					"output":51
				},
				{
					"input":13,
					"interpolation":"LINEAR",
					"output":52
				},
				{
					"input":13,
					"interpolation":"LINEAR",
					"output":53
				},
				{
					"input":13,
					"interpolation":"LINEAR",
					"output":54
				},
				{
					"input":13,
					"interpolation":"LINEAR",
					"output":55
				},
				{
					"input":13,
					"interpolation":"LINEAR",
					"output":56
				},
				{
					"input":13,
					"interpolation":"LINEAR",
					"output":57
				},
				{
					"input":13,
					"interpolation":"LINEAR",
					"output":58
				}
			]
		}
	],
	"materials":[
		{
			"doubleSided":true,
			"emissiveFactor":[
				1,
				1,
				1
			],
			"extensions":{
				"KHR_materials_emissive_strength":{
					"emissiveStrength":2
				}
			},
			"name":"Black",
			"pbrMetallicRoughness":{
				"baseColorFactor":[
					0,
					0,
					0,
					1
				]
			}
		},
		{
			"doubleSided":true,
			"emissiveFactor":[
				1,
				1,
				1
			],
			"name":"White",
			"pbrMetallicRoughness":{
				"baseColorFactor":[
					0,
					0,
					0,
					1
				]
			}
		}
	],
	"meshes":[
		{
			"name":"Cube.004",
			"primitives":[
				{
					"attributes":{
						"POSITION":0,
						"TEXCOORD_0":1,
						"NORMAL":2,
						"JOINTS_0":3,
						"WEIGHTS_0":4
					},
					"indices":5,
					"material":0
				},
				{
					"attributes":{
						"POSITION":6,
						"TEXCOORD_0":7,
						"NORMAL":8,
						"JOINTS_0":9,
						"WEIGHTS_0":10
					},
					"indices":11,
					"material":1
				}
			]
		}
	],
	"skins":[
		{
			"inverseBindMatrices":12,
			"joints":[
				14,
				13,
				6,
				5,
				4,
				3,
				2,
				1,
				0,
				9,
				8,
				7,
				12,
				11,
				10
			],
			"name":"Armature"
		}
	],
	"accessors":[
		{
			"bufferView":0,
			"componentType":5126,
			"count":8512,
			"max":[
				0.5924707651138306,
				0.12991885840892792,
				0.8197977542877197
			],
			"min":[
				-0.5924707651138306,
				0.014290347695350647,
				-0.2117295265197754
			],
			"type":"VEC3"
		},
		{
			"bufferView":1,
			"componentType":5126,
			"count":8512,
			"type":"VEC2"
		},
		{
			"bufferView":2,
			"componentType":5126,
			"count":8512,
			"type":"VEC3"
		},
		{
			"bufferView":3,
			"componentType":5121,
			"count":8512,
			"type":"VEC4"
		},
		{
			"bufferView":4,
			"componentType":5126,
			"count":8512,
			"type":"VEC4"
		},
		{
			"bufferView":5,
			"componentType":5123,
			"count":12768,
			"type":"SCALAR"
		},
		{
			"bufferView":6,
			"componentType":5126,
			"count":3928,
			"max":[
				0.12266376614570618,
				0.11337181180715561,
				0.7063421010971069
			],
			"min":[
				-0.12266388535499573,
				-0.024523988366127014,
				0.0641600489616394
			],
			"type":"VEC3"
		},
		{
			"bufferView":7,
			"componentType":5126,
			"count":3928,
			"type":"VEC2"
		},
		{
			"bufferView":8,
			"componentType":5126,
			"count":3928,
			"type":"VEC3"
		},
		{
			"bufferView":9,
			"componentType":5121,
			"count":3928,
			"type":"VEC4"
		},
		{
			"bufferView":10,
			"componentType":5126,
			"count":3928,
			"type":"VEC4"
		},
		{
			"bufferView":11,
			"componentType":5123,
			"count":5892,
			"type":"SCALAR"
		},
		{
			"bufferView":12,
			"componentType":5126,
			"count":15,
			"type":"MAT4"
		},
		{
			"bufferView":13,
			"componentType":5126,
			"count":249,
			"max":[
				10.333333333333334
			],
			"min":[
				0
			],
			"type":"SCALAR"
		},
		{
			"bufferView":14,
			"componentType":5126,
			"count":249,
			"type":"VEC3"
		},
		{
			"bufferView":15,
			"componentType":5126,
			"count":249,
			"type":"VEC4"
		},
		{
			"bufferView":16,
			"componentType":5126,
			"count":249,
			"type":"VEC3"
		},
		{
			"bufferView":17,
			"componentType":5126,
			"count":249,
			"type":"VEC3"
		},
		{
			"bufferView":18,
			"componentType":5126,
			"count":249,
			"type":"VEC4"
		},
		{
			"bufferView":19,
			"componentType":5126,
			"count":249,
			"type":"VEC3"
		},
		{
			"bufferView":20,
			"componentType":5126,
			"count":249,
			"type":"VEC3"
		},
		{
			"bufferView":21,
			"componentType":5126,
			"count":249,
			"type":"VEC4"
		},
		{
			"bufferView":22,
			"componentType":5126,
			"count":249,
			"type":"VEC3"
		},
		{
			"bufferView":23,
			"componentType":5126,
			"count":249,
			"type":"VEC3"
		},
		{
			"bufferView":24,
			"componentType":5126,
			"count":249,
			"type":"VEC4"
		},
		{
			"bufferView":25,
			"componentType":5126,
			"count":249,
			"type":"VEC3"
		},
		{
			"bufferView":26,
			"componentType":5126,
			"count":249,
			"type":"VEC3"
		},
		{
			"bufferView":27,
			"componentType":5126,
			"count":249,
			"type":"VEC4"
		},
		{
			"bufferView":28,
			"componentType":5126,
			"count":249,
			"type":"VEC3"
		},
		{
			"bufferView":29,
			"componentType":5126,
			"count":249,
			"type":"VEC3"
		},
		{
			"bufferView":30,
			"componentType":5126,
			"count":249,
			"type":"VEC4"
		},
		{
			"bufferView":31,
			"componentType":5126,
			"count":249,
			"type":"VEC3"
		},
		{
			"bufferView":32,
			"componentType":5126,
			"count":249,
			"type":"VEC3"
		},
		{
			"bufferView":33,
			"componentType":5126,
			"count":249,
			"type":"VEC4"
		},
		{
			"bufferView":34,
			"componentType":5126,
			"count":249,
			"type":"VEC3"
		},
		{
			"bufferView":35,
			"componentType":5126,
			"count":249,
			"type":"VEC3"
		},
		{
			"bufferView":36,
			"componentType":5126,
			"count":249,
			"type":"VEC4"
		},
		{
			"bufferView":37,
			"componentType":5126,
			"count":249,
			"type":"VEC3"
		},
		{
			"bufferView":38,
			"componentType":5126,
			"count":249,
			"type":"VEC3"
		},
		{
			"bufferView":39,
			"componentType":5126,
			"count":249,
			"type":"VEC4"
		},
		{
			"bufferView":40,
			"componentType":5126,
			"count":249,
			"type":"VEC3"
		},
		{
			"bufferView":41,
			"componentType":5126,
			"count":249,
			"type":"VEC3"
		},
		{
			"bufferView":42,
			"componentType":5126,
			"count":249,
			"type":"VEC4"
		},
		{
			"bufferView":43,
			"componentType":5126,
			"count":249,
			"type":"VEC3"
		},
		{
			"bufferView":44,
			"componentType":5126,
			"count":249,
			"type":"VEC3"
		},
		{
			"bufferView":45,
			"componentType":5126,
			"count":249,
			"type":"VEC4"
		},
		{
			"bufferView":46,
			"componentType":5126,
			"count":249,
			"type":"VEC3"
		},
		{
			"bufferView":47,
			"componentType":5126,
			"count":249,
			"type":"VEC3"
		},
		{
			"bufferView":48,
			"componentType":5126,
			"count":249,
			"type":"VEC4"
		},
		{
			"bufferView":49,
			"componentType":5126,
			"count":249,
			"type":"VEC3"
		},
		{
			"bufferView":50,
			"componentType":5126,
			"count":249,
			"type":"VEC3"
		},
		{
			"bufferView":51,
			"componentType":5126,
			"count":249,
			"type":"VEC4"
		},
		{
			"bufferView":52,
			"componentType":5126,
			"count":249,
			"type":"VEC3"
		},
		{
			"bufferView":53,
			"componentType":5126,
			"count":249,
			"type":"VEC3"
		},
		{
			"bufferView":54,
			"componentType":5126,
			"count":249,
			"type":"VEC4"
		},
		{
			"bufferView":55,
			"componentType":5126,
			"count":249,
			"type":"VEC3"
		},
		{
			"bufferView":56,
			"componentType":5126,
			"count":249,
			"type":"VEC3"
		},
		{
			"bufferView":57,
			"componentType":5126,
			"count":249,
			"type":"VEC4"
		},
		{
			"bufferView":58,
			"componentType":5126,
			"count":249,
			"type":"VEC3"
		}
	],
	"bufferViews":[
		{
			"buffer":0,
			"byteLength":102144,
			"byteOffset":0,
			"target":34962
		},
		{
			"buffer":0,
			"byteLength":68096,
			"byteOffset":102144,
			"target":34962
		},
		{
			"buffer":0,
			"byteLength":102144,
			"byteOffset":170240,
			"target":34962
		},
		{
			"buffer":0,
			"byteLength":34048,
			"byteOffset":272384,
			"target":34962
		},
		{
			"buffer":0,
			"byteLength":136192,
			"byteOffset":306432,
			"target":34962
		},
		{
			"buffer":0,
			"byteLength":25536,
			"byteOffset":442624,
			"target":34963
		},
		{
			"buffer":0,
			"byteLength":47136,
			"byteOffset":468160,
			"target":34962
		},
		{
			"buffer":0,
			"byteLength":31424,
			"byteOffset":515296,
			"target":34962
		},
		{
			"buffer":0,
			"byteLength":47136,
			"byteOffset":546720,
			"target":34962
		},
		{
			"buffer":0,
			"byteLength":15712,
			"byteOffset":593856,
			"target":34962
		},
		{
			"buffer":0,
			"byteLength":62848,
			"byteOffset":609568,
			"target":34962
		},
		{
			"buffer":0,
			"byteLength":11784,
			"byteOffset":672416,
			"target":34963
		},
		{
			"buffer":0,
			"byteLength":960,
			"byteOffset":684200
		},
		{
			"buffer":0,
			"byteLength":996,
			"byteOffset":685160
		},
		{
			"buffer":0,
			"byteLength":2988,
			"byteOffset":686156
		},
		{
			"buffer":0,
			"byteLength":3984,
			"byteOffset":689144
		},
		{
			"buffer":0,
			"byteLength":2988,
			"byteOffset":693128
		},
		{
			"buffer":0,
			"byteLength":2988,
			"byteOffset":696116
		},
		{
			"buffer":0,
			"byteLength":3984,
			"byteOffset":699104
		},
		{
			"buffer":0,
			"byteLength":2988,
			"byteOffset":703088
		},
		{
			"buffer":0,
			"byteLength":2988,
			"byteOffset":706076
		},
		{
			"buffer":0,
			"byteLength":3984,
			"byteOffset":709064
		},
		{
			"buffer":0,
			"byteLength":2988,
			"byteOffset":713048
		},
		{
			"buffer":0,
			"byteLength":2988,
			"byteOffset":716036
		},
		{
			"buffer":0,
			"byteLength":3984,
			"byteOffset":719024
		},
		{
			"buffer":0,
			"byteLength":2988,
			"byteOffset":723008
		},
		{
			"buffer":0,
			"byteLength":2988,
			"byteOffset":725996
		},
		{
			"buffer":0,
			"byteLength":3984,
			"byteOffset":728984
		},
		{
			"buffer":0,
			"byteLength":2988,
			"byteOffset":732968
		},
		{
			"buffer":0,
			"byteLength":2988,
			"byteOffset":735956
		},
		{
			"buffer":0,
			"byteLength":3984,
			"byteOffset":738944
		},
		{
			"buffer":0,
			"byteLength":2988,
			"byteOffset":742928
		},
		{
			"buffer":0,
			"byteLength":2988,
			"byteOffset":745916
		},
		{
			"buffer":0,
			"byteLength":3984,
			"byteOffset":748904
		},
		{
			"buffer":0,
			"byteLength":2988,
			"byteOffset":752888
		},
		{
			"buffer":0,
			"byteLength":2988,
			"byteOffset":755876
		},
		{
			"buffer":0,
			"byteLength":3984,
			"byteOffset":758864
		},
		{
			"buffer":0,
			"byteLength":2988,
			"byteOffset":762848
		},
		{
			"buffer":0,
			"byteLength":2988,
			"byteOffset":765836
		},
		{
			"buffer":0,
			"byteLength":3984,
			"byteOffset":768824
		},
		{
			"buffer":0,
			"byteLength":2988,
			"byteOffset":772808
		},
		{
			"buffer":0,
			"byteLength":2988,
			"byteOffset":775796
		},
		{
			"buffer":0,
			"byteLength":3984,
			"byteOffset":778784
		},
		{
			"buffer":0,
			"byteLength":2988,
			"byteOffset":782768
		},
		{
			"buffer":0,
			"byteLength":2988,
			"byteOffset":785756
		},
		{
			"buffer":0,
			"byteLength":3984,
			"byteOffset":788744
		},
		{
			"buffer":0,
			"byteLength":2988,
			"byteOffset":792728
		},
		{
			"buffer":0,
			"byteLength":2988,
			"byteOffset":795716
		},
		{
			"buffer":0,
			"byteLength":3984,
			"byteOffset":798704
		},
		{
			"buffer":0,
			"byteLength":2988,
			"byteOffset":802688
		},
		{
			"buffer":0,
			"byteLength":2988,
			"byteOffset":805676
		},
		{
			"buffer":0,
			"byteLength":3984,
			"byteOffset":808664
		},
		{
			"buffer":0,
			"byteLength":2988,
			"byteOffset":812648
		},
		{
			"buffer":0,
			"byteLength":2988,
			"byteOffset":815636
		},
		{
			"buffer":0,
			"byteLength":3984,
			"byteOffset":818624
		},
		{
			"buffer":0,
			"byteLength":2988,
			"byteOffset":822608
		},
		{
			"buffer":0,
			"byteLength":2988,
			"byteOffset":825596
		},
		{
			"buffer":0,
			"byteLength":3984,
			"byteOffset":828584
		},
		{
			"buffer":0,
			"byteLength":2988,
			"byteOffset":832568
		}
	],
	"buffers":[
		{
			"byteLength":835556,
			"uri":"data:application/octet-stream;base64,"
		}
	]
}
