{
	"asset":{
		"generator":"Khronos glTF Blender I/O v4.0.44",
		"version":"2.0"
	},
	"scene":0,
	"scenes":[
		{
			"name":"Scene",
			"nodes":[
				0,
				1,
				2
			]
		}
	],
	"nodes":[
		{
			"mesh":0,
			"name":"Sphere"
		},
		{
			"mesh":1,
			"name":"Sphere.001"
		},
		{
			"mesh":2,
			"name":"Sphere.002"
		}
	],
	"meshes":[
		{
			"name":"Sphere",
			"primitives":[
				{
					"attributes":{
						"POSITION":0,
						"NORMAL":1,
						"TEXCOORD_0":2
					},
					"indices":3
				}
			]
		},
		{
			"name":"Sphere.001",
			"primitives":[
				{
					"attributes":{
						"POSITION":4,
						"NORMAL":5,
						"TEXCOORD_0":6
					},
					"indices":7
				}
			]
		},
		{
			"name":"Sphere.002",
			"primitives":[
				{
					"attributes":{
						"POSITION":8,
						"NORMAL":9,
						"TEXCOORD_0":10
					},
					"indices":11
				}
			]
		}
	],
	"accessors":[
		{
			"bufferView":0,
			"componentType":5126,
			"count":2616,
			"max":[
				0.8014912009239197,
				0.9975765347480774,
				0.3986334502696991
			],
			"min":[
				-0.8014911413192749,
				-1.1880854368209839,
				-0.5648691654205322
			],
			"type":"VEC3"
		},
		{
			"bufferView":1,
			"componentType":5126,
			"count":2616,
			"type":"VEC3"
		},
		{
			"bufferView":2,
			"componentType":5126,
			"count":2616,
			"type":"VEC2"
		},
		{
			"bufferView":3,
			"componentType":5123,
			"count":4032,
			"type":"SCALAR"
		},
		{
			"bufferView":4,
			"componentType":5126,
			"count":1984,
			"max":[
				-0.18265840411186218,
				0.4371461868286133,
				0.29207107424736023
			],
			"min":[
				-0.5426582098007202,
				0.07714618742465973,
				-0.06792888045310974
			],
			"type":"VEC3"
		},
		{
			"bufferView":5,
			"componentType":5126,
			"count":1984,
			"type":"VEC3"
		},
		{
			"bufferView":6,
			"componentType":5126,
			"count":1984,
			"type":"VEC2"
		},
		{
			"bufferView":7,
			"componentType":5123,
			"count":2880,
			"type":"SCALAR"
		},
		{
			"bufferView":8,
			"componentType":5126,
			"count":1984,
			"max":[
				0.5426582098007202,
				0.4371461868286133,
				0.29207107424736023
			],
			"min":[
				0.18265840411186218,
				0.07714618742465973,
				-0.06792888045310974
			],
			"type":"VEC3"
		},
		{
			"bufferView":9,
			"componentType":5126,
			"count":1984,
			"type":"VEC3"
		},
		{
			"bufferView":10,
			"componentType":5126,
			"count":1984,
			"type":"VEC2"
		},
		{
			"bufferView":11,
			"componentType":5123,
			"count":2880,
			"type":"SCALAR"
		}
	],
	"bufferViews":[
		{
			"buffer":0,
			"byteLength":31392,
			"byteOffset":0,
			"target":34962
		},
		{
			"buffer":0,
			"byteLength":31392,
			"byteOffset":31392,
			"target":34962
		},
		{
			"buffer":0,
			"byteLength":20928,
			"byteOffset":62784,
			"target":34962
		},
		{
			"buffer":0,
			"byteLength":8064,
			"byteOffset":83712,
			"target":34963
		},
		{
			"buffer":0,
			"byteLength":23808,
			"byteOffset":91776,
			"target":34962
		},
		{
			"buffer":0,
			"byteLength":23808,
			"byteOffset":115584,
			"target":34962
		},
		{
			"buffer":0,
			"byteLength":15872,
			"byteOffset":139392,
			"target":34962
		},
		{
			"buffer":0,
			"byteLength":5760,
			"byteOffset":155264,
			"target":34963
		},
		{
			"buffer":0,
			"byteLength":23808,
			"byteOffset":161024,
			"target":34962
		},
		{
			"buffer":0,
			"byteLength":23808,
			"byteOffset":184832,
			"target":34962
		},
		{
			"buffer":0,
			"byteLength":15872,
			"byteOffset":208640,
			"target":34962
		},
		{
			"buffer":0,
			"byteLength":5760,
			"byteOffset":224512,
			"target":34963
		}
	],
	"buffers":[
		{
			"byteLength":230272,
			"uri":"mask.bin"
		}
	]
}
